<?xml version="1.0" encoding="UTF-8"?>
<svg id="Layer_2" data-name="Layer 2" xmlns="http://www.w3.org/2000/svg" viewBox="0 0 821.67 821.75">
  <defs>
    <style>
      .cls-1 {
        fill: #fff;
      }

      .cls-2 {
        fill: #003463;
      }
    </style>
  </defs>
  <g id="Layer_1-2" data-name="Layer 1">
    <path class="cls-2" d="m411.1,821.75C182.84,821.14-1.11,636.99,0,410.22,1.13,182.7,186.15-1.06,413.05,0c226.15,1.06,409,185.49,408.62,412.13-.39,226.72-184.3,410.21-410.57,409.61Zm188.42-255.7c-2.27-4.57-2.91-7.36-4.62-9.08-46.84-47.28-93.56-94.69-141.2-141.15-3.59-3.5-15.9-2.85-20.74.63-15.48,11.13-29.35,11.79-43.72-.66-8.12-7.04-14.74-7.65-23.2.99-45.12,46.02-90.86,91.43-136.28,137.15-2.72,2.74-4.56,6.35-8.63,12.13h378.39ZM219.1,256.25c5.73,7.26,7.59,11.17,10.67,13.3,55.4,38.24,110.53,76.9,166.95,113.58,7.39,4.8,24.05,3.12,32.11-2.15,53.41-34.89,105.7-71.49,158.16-107.82,4.93-3.41,8.54-8.75,16.3-16.91H219.1Zm-23.01,278.81c49.1-48.43,99.13-97.78,150.9-148.84-47.77-32.7-97.44-66.7-150.9-103.29v252.13Zm429.71-249.85c-8.3,4.64-14.39,7.47-19.87,11.2-39.41,26.81-78.32,54.4-118.22,80.47-16.47,10.76-13.9,18.61-1.73,30.53,41.07,40.23,81.39,81.21,122.1,121.8,4.57,4.55,9.8,8.43,17.71,15.16v-259.15Z"/>
    <path class="cls-1" d="m599.53,566.04H221.14c4.06-5.78,5.91-9.39,8.63-12.13,45.42-45.72,91.16-91.14,136.28-137.15,8.46-8.63,15.08-8.03,23.2-.99,14.37,12.45,28.24,11.79,43.72.66,4.84-3.48,17.16-4.13,20.74-.63,47.64,46.46,94.36,93.87,141.2,141.15,1.71,1.73,2.35,4.51,4.62,9.08Z"/>
    <path class="cls-1" d="m219.1,256.25h384.2c-7.76,8.17-11.36,13.5-16.3,16.91-52.46,36.32-104.75,72.93-158.16,107.82-8.06,5.27-24.73,6.95-32.11,2.15-56.42-36.68-111.56-75.34-166.95-113.58-3.09-2.13-4.95-6.04-10.67-13.3Z"/>
    <path class="cls-1" d="m196.08,535.06v-252.13c53.45,36.59,103.13,70.59,150.9,103.29-51.77,51.06-101.8,100.41-150.9,148.84Z"/>
    <path class="cls-1" d="m625.8,285.21v259.15c-7.91-6.73-13.14-10.61-17.71-15.16-40.71-40.59-81.04-81.57-122.1-121.8-12.18-11.93-14.74-19.78,1.73-30.53,39.9-26.06,78.8-53.65,118.22-80.47,5.48-3.73,11.57-6.56,19.87-11.2Z"/>
  </g>
</svg>