<?xml version="1.0" encoding="UTF-8"?>
<svg id="Layer_2" data-name="Layer 2" xmlns="http://www.w3.org/2000/svg" viewBox="0 0 182.04 182.04">
  <defs>
    <style>
      .cls-1 {
        fill: #1d8fcd;
      }

      .cls-2 {
        fill: #8dd7f7;
      }

      .cls-3 {
        fill: #003260;
      }
    </style>
  </defs>
  <g id="Layer_1-2" data-name="Layer 1">
    <g>
      <circle class="cls-2" cx="91.02" cy="91.02" r="91.02" transform="translate(-37.7 91.02) rotate(-45)"/>
      <path class="cls-1" d="M95.32,147.29c-3.77,3.71-8.67,5.57-13.58,5.6-3.21,.01-6.41-.76-9.31-2.31l.39,.39c.08,.08,.17,.17,.25,.24-2.92-1.46-5.66-3.43-8.07-5.91l-32-32.81c-11.77-12.06-11.53-31.39,.53-43.16,4.52-4.4,10.04-7.12,15.81-8.17,.85,8.11,4.35,15.99,10.51,22.24l18.83,19.2,15.57,15.81s0,0,0,.01l1.27,1.29c.08,.08,.16,.17,.24,.25l.11,.11c7.21,7.69,7,19.78-.56,27.22Z"/>
      <path class="cls-1" d="M152.19,113.05c-4.48,4.37-9.95,7.08-15.67,8.15-.79-8.22-4.3-16.23-10.55-22.57l-1.62-1.65c-.44-.48-.9-.96-1.36-1.44l-15.85-16.1-15.57-15.81h0s0-.01-.01-.01l-1.61-1.65c-7.21-7.7-7-19.78,.55-27.22,3.78-3.71,8.68-5.58,13.58-5.6,2.35-.01,4.69,.39,6.91,1.23t.02,.01c3.55,1.52,6.86,3.76,9.72,6.69l32,32.81c11.77,12.06,11.53,31.39-.53,43.16Z"/>
      <path class="cls-3" d="M136.69,124.62c.05,9.7-3.67,19.42-11.12,26.76-14.6,14.37-38.03,14.27-52.5-.17-.08-.07-.17-.16-.25-.24l-.39-.39c2.9,1.55,6.1,2.32,9.31,2.31,4.91-.03,9.81-1.89,13.58-5.6,7.56-7.44,7.77-19.53,.56-27.22l-.11-.11c-.08-.08-.16-.17-.24-.25l-1.27-1.29s0-.01,0-.01l-15.57-15.81-18.83-19.2c-6.16-6.25-9.66-14.13-10.51-22.24-.14-1.24-.2-2.5-.21-3.75-.05-9.7,3.66-19.41,11.12-26.75,14.68-14.46,38.29-14.27,52.75,.4l.02,.03,.36,.37c-.77-.42-1.57-.77-2.38-1.07t-.02-.01c-2.22-.84-4.56-1.24-6.91-1.23-4.9,.02-9.8,1.89-13.58,5.6-7.55,7.44-7.76,19.52-.55,27.22l1.61,1.65h.02s15.57,15.82,15.57,15.82l15.85,16.1c.46,.48,.92,.96,1.36,1.44l1.62,1.65c6.25,6.34,9.76,14.35,10.55,22.57,.11,1.14,.17,2.28,.17,3.42Z"/>
    </g>
  </g>
</svg>