<?xml version="1.0" encoding="UTF-8"?>
<svg id="Layer_2" data-name="Layer 2" xmlns="http://www.w3.org/2000/svg" viewBox="0 0 821.54 821.75">
  <defs>
    <style>
      .cls-1 {
        fill: #fff;
      }

      .cls-2 {
        fill: #003463;
      }
    </style>
  </defs>
  <g id="Layer_1-2" data-name="Layer 1">
    <path class="cls-2" d="m411.43,821.75C182.85,821.21-.32,638.27,0,410.84.32,182.7,185.78-1.18,414.34,0c225.29,1.17,407.49,186.3,407.2,413.76-.29,224.75-185.01,408.52-410.11,407.99Zm102.56-193.45c47.77.44,78.69-22.4,90.57-65.62,3.65-13.27.17-21.41-11.83-27.34-22.62-11.17-45.02-22.78-67.5-34.24q-35.6-18.15-65.13,8.56c-21.77,19.68-31.26,21.5-51.73.19-29.52-30.73-57.74-63.04-83.54-96.93-30.47-40.03-28.62-46.18,11.31-75.19,13.12-9.53,18.39-20.4,13.75-36-9.2-30.9-17.38-62.15-28.12-92.49-2.4-6.77-13.59-14.69-20.81-14.77-38.99-.44-72.61,25.66-80.68,64.02-4.4,20.9-6.73,43.55-3.69,64.49,18.1,124.83,88.42,213.93,195.38,276.05,31.15,18.09,65.26,29.1,102.01,29.27Z"/>
    <path class="cls-1" d="m513.99,628.31c-36.75-.18-70.86-11.19-102.01-29.28-106.96-62.12-177.28-151.22-195.38-276.05-3.04-20.95-.71-43.59,3.69-64.49,8.07-38.36,41.69-64.46,80.68-64.02,7.22.08,18.41,8.01,20.81,14.77,10.74,30.35,18.92,61.6,28.12,92.49,4.64,15.6-.63,26.46-13.75,36-39.93,29.01-41.78,35.16-11.31,75.19,25.8,33.89,54.02,66.2,83.54,96.93,20.47,21.31,29.96,19.49,51.73-.19q29.54-26.72,65.13-8.56c22.48,11.46,44.88,23.07,67.5,34.24,12.01,5.93,15.48,14.06,11.83,27.34-11.88,43.22-42.8,66.06-90.57,65.63Z"/>
  </g>
</svg>